<?xml version="1.0" encoding="UTF-8"?>
<svg width="127px" height="81px" viewBox="0 0 127 81" version="1.1" xmlns="http://www.w3.org/2000/svg" xmlns:xlink="http://www.w3.org/1999/xlink">
    <title>Group</title>
    <g id="Wireframes" stroke="none" stroke-width="1" fill="none" fill-rule="evenodd">
        <g id="Gastos" transform="translate(-137.000000, -85.000000)" fill="#FFFFFF">
            <g id="Group" transform="translate(137.642042, 85.000000)">
                <path d="M63.3579581,47.7617087 C78.6199792,69.5341616 88.3386107,80.420388 92.5138527,80.420388 C96.6890947,80.420388 107.729866,53.613592 125.636166,-4.26325641e-14 C100.061607,42.092438 85.2620661,60.0980636 81.2375441,54.0168769 C73.0339078,41.6209096 63.3579581,27.0002276 63.3579581,27.0002276" id="Path-4"></path>
                <path d="M1.42108547e-14,47.7617087 C0.182770403,47.5665462 0.368250574,47.4689649 0.556440512,47.4689649 C0.74463045,47.4689649 0.919066967,47.5665462 1.07975006,47.7617087 C16.3417711,69.5341616 26.0604027,80.420388 30.2356446,80.420388 C34.4108866,80.420388 45.4516578,53.613592 63.3579581,-4.26325641e-14 C37.7833988,42.092438 22.9838581,60.0980636 18.959336,54.0168769 C10.7556998,41.6209096 1.07975006,27.0002276 1.07975006,27.0002276 C1.07975006,27.0002276 0.851586398,26.6717121 0.556440512,26.6717121 C0.359676588,26.6717121 0.174196418,26.7812172 1.42108547e-14,27.0002276" id="Path-4" transform="translate(31.678979, 40.210194) scale(-1, 1) translate(-31.678979, -40.210194) "></path>
            </g>
        </g>
    </g>
</svg>